# xmcd CD database file
#
# Track frame offsets:
#	150
#	26889
#	73861
#	155012
#	186769
#	234505
#	280555
#
# Disc length: 4337 seconds
#
# Revision: 0
# Processed by: cddbd v1.5.2PL0 Copyright (c) Steve Scherf et al.
# Submitted via: CDex 1.94
#
DISCID=5e10ef07
DTITLE=Dale Cooper Quartet and The Dictaphones - Astrild Astrild
DYEAR=2017
DGENRE=Jazz
TTITLE0=Mia Outarde Bondon
TTITLE1=Pemp Ajour Imposte
TTITLE2=Son Mansarde Roselin
TTITLE3=Five Clenche Bouscarte - Ocho Accenteur
TTITLE4=Huis Chevechette
TTITLE5=Ta Chassis Euplecte
TTITLE6=Tua Oriel Courvite Isabelle
EXTD=YEAR: 2017
EXTT0=
EXTT1=
EXTT2=
EXTT3=
EXTT4=
EXTT5=
EXTT6=
PLAYORDER=
